<svg version="1.2" xmlns="http://www.w3.org/2000/svg" viewBox="0 0 1180 1028" width="1180" height="1028">
	<title>JEIS_Hausverwaltung_Bochum_favico-ai</title>
	<style>
		.s0 { fill: #007d2e } 
	</style>
	<g id="Ebene 1">
		<g id="&lt;Group&gt;">
			<path id="&lt;Compound Path&gt;" class="s0" d="m650 377.5l113 67.5v304.3c0 46.4-4.1 82.2-12.2 107.2-11 32.6-30.9 58.9-59.8 78.7-28.9 19.8-66.9 29.6-114.1 29.6-55.4 0-98-15.4-128-46.5-29.8-31-45-76.5-45.1-136.5l106.8-12.3q2 48.3 14.1 68.3c12.3 20.1 31 30.2 56 30.2 25.2 0 43.1-7.2 53.6-21.7q15.7-21.6 15.7-89.8v-362.7z"/>
			<path id="&lt;Path&gt;" class="s0" d="m21.9 588.3l564.9-348.6c6.4-4 13.9-1.3 16.4 5.9l13.2 37.4c2.5 7.3-0.7 16.5-7.2 20.5l-564.9 348.5c-6.5 4-13.9 1.4-16.4-5.9l-13.2-37.4c-2.6-7.2 0.7-16.4 7.2-20.4z"/>
			<path id="&lt;Path&gt;" class="s0" d="m1149.8 650.7l-573-346.3c-6.6-4-9.9-13.3-7.4-20.7l13.1-37.9c2.5-7.3 10-10.1 16.6-6.1l573 346.3c6.6 4 9.9 13.2 7.4 20.6l-13.1 37.9c-2.6 7.4-10 10.2-16.6 6.2z"/>
			<path id="&lt;Path&gt;" class="s0" d="m650 235v-120.9h113v188.9z"/>
		</g>
	</g>
</svg>