<svg version="1.2" xmlns="http://www.w3.org/2000/svg" viewBox="0 0 1360 680" width="1360" height="680">
	<title>logo-svg</title>
	<style>
		.s0 { fill: #007d2e } 
		.s1 { fill: #f0af07 } 
	</style>
	<g id="Ebene 1">
		<path id="&lt;Compound Path&gt;" class="s0" d="m351.1 256.9h62.9v197.5c0 25.8-2.4 45.7-6.9 59.6-6 18.1-17.1 32.8-33.1 43.8-16.1 11-37.2 16.4-63.5 16.4-30.8 0-54.5-8.5-71.1-25.8-16.7-17.2-25-42.5-25.1-75.9l59.4-6.8q1 26.8 7.8 37.9c6.8 11.2 17.2 16.8 31.1 16.8 14 0 23.9-4 29.9-12.1q8.6-11.9 8.6-49.9zm129.9 312.1v-312.1h231.4v52.8h-168.3v69.2h156.6v52.6h-156.6v84.9h174.3v52.6zm288.8 0l3.1-362.6 60.7 27.7-0.7 334.9zm107-101.5l61.4-6c3.6 20.6 11.1 35.8 22.5 45.4 11.3 9.6 26.4 14.4 45.5 14.4 20.4 0 35.7-4.2 45.9-12.9q15.5-12.8 15.5-30.1c0-7.4-2.2-13.6-6.5-18.8q-6.5-7.8-22.7-13.5c-7.4-2.6-24.1-7.2-50.4-13.7-33.9-8.3-57.5-18.7-71.1-30.9q-28.8-25.6-28.8-62.8c0-15.9 4.6-30.7 13.5-44.6 9.1-13.8 22.1-24.3 39-31.6 17-7.2 37.4-10.8 61.4-10.8 39.3 0 68.7 8.6 88.5 25.8 19.7 17.2 30.2 40 31.2 68.7l-63 2.8c-2.7-16.1-8.5-27.7-17.3-34.6-9-7.1-22.3-10.6-40-10.6-18.3 0-32.7 3.8-43 11.3-6.7 4.9-10.1 11.3-10.1 19.3q0 11.2 9.4 19c7.9 6.8 27.3 13.7 57.9 20.9q46 10.8 68.1 22.4c14.6 7.9 26.1 18.4 34.4 31.8q12.5 20.1 12.5 49.7c0 17.9-5 34.7-14.9 50.2-9.9 15.7-23.9 27.3-42.2 34.8-18.1 7.7-40.8 11.5-67.9 11.5-39.4 0-69.7-9.1-90.9-27.3-21.1-18.3-33.8-45-37.9-79.8z"/>
		<path id="&lt;Path&gt;" class="s0" d="m10 371.5l657.1-306.4c7.5-3.6 16.1-1.2 19.1 5.2l15.3 32.9c3 6.3-0.8 14.4-8.3 17.9l-657 306.4c-7.6 3.6-16.3 1.2-19.2-5.2l-15.3-32.9c-3-6.3 0.7-14.4 8.3-17.9z"/>
		<path id="&lt;Path&gt;" class="s0" d="m1323.9 426.9l-666.5-304.4c-7.7-3.5-11.5-11.7-8.6-18.1l15.2-33.4c3-6.4 11.7-8.9 19.3-5.4l666.6 304.4c7.6 3.5 11.5 11.7 8.5 18.2l-15.2 33.3c-3 6.4-11.7 8.8-19.3 5.4z"/>
		<path id="&lt;Path&gt;" class="s0" d="m770.6 72.8l-0.3-67.8h63l-0.3 96.1z"/>
		<path id="&lt;Path&gt;" class="s1" d="m31.5 621.7l1301.8 0.3c23.1 0 26.7 13.4 26.7 21.8v7.4c0 8.4-2.8 23-25.8 23h-1302.7c-23 0-31.5-15.3-31.5-23.7v-5.3c0-8.5 8.5-23.5 31.5-23.5z"/>
		<path id="&lt;Path&gt;" class="s0" d="m395.3 246.7h18.7v14.8h-18.7z"/>
	</g>
</svg>