<svg version="1.2" xmlns="http://www.w3.org/2000/svg" viewBox="0 0 1360 680" width="1360" height="680">
	<title>JEIS_Hausverwaltung_Bochum-ai</title>
	<style>
		.s0 { fill: #007d2e } 
		.s1 { fill: #f0af07 } 
	</style>
	<g id="Ebene 1">
		<path id="&lt;Compound Path&gt;" class="s0" d="m368.5 261.4h59.6v187.3c0 24.5-2.2 43.3-6.5 56.5-5.7 17.2-16.2 31.1-31.4 41.5-15.3 10.5-35.3 15.6-60.2 15.6-29.2 0-51.7-8.1-67.4-24.5-15.8-16.3-23.7-40.3-23.8-71.9l56.3-6.5q1 25.4 7.4 36c6.5 10.6 16.3 15.9 29.5 15.9 13.3 0 22.7-3.8 28.3-11.5q8.2-11.3 8.2-47.3zm123.2 295.9v-295.9h219.4v50.1h-159.6v65.6h148.5v49.8h-148.5v80.5h165.3v49.9zm273.8 0l2.9-343.8 57.6 26.3-0.7 317.5zm101.5-96.2l58.2-5.7c3.4 19.5 10.5 33.9 21.3 43 10.7 9.1 25.1 13.7 43.2 13.7 19.3 0 33.8-4 43.5-12.2q14.7-12.2 14.7-28.6c0-7-2.1-12.9-6.2-17.8q-6.1-7.4-21.5-12.8c-7-2.5-22.9-6.8-47.8-13-32.1-7.9-54.5-17.7-67.4-29.3q-27.3-24.3-27.3-59.5c0-15.1 4.3-29.1 12.8-42.3 8.6-13.1 20.9-23.1 37-30 16.1-6.8 35.4-10.2 58.2-10.2 37.2 0 65.1 8.1 83.9 24.4 18.7 16.3 28.6 38 29.6 65.2l-59.8 2.6c-2.5-15.2-8-26.2-16.4-32.8-8.5-6.7-21.1-10-37.9-10-17.3 0-31 3.6-40.8 10.7-6.3 4.6-9.5 10.7-9.5 18.3q0 10.6 8.9 18c7.5 6.4 25.9 13 54.9 19.8q43.6 10.3 64.5 21.3c13.9 7.4 24.8 17.4 32.7 30.1q11.8 19.1 11.8 47.1c0 17-4.7 32.9-14.1 47.6-9.4 14.9-22.7 25.9-40 33-17.2 7.3-38.7 10.9-64.4 10.9-37.4 0-66.1-8.6-86.2-25.9-20-17.3-32-42.6-35.9-75.6z"/>
		<path id="&lt;Path&gt;" class="s0" d="m45.1 370.1l623-290.5c7.1-3.4 15.3-1.2 18.1 4.9l14.5 31.2c2.9 6-0.7 13.7-7.8 17l-623 290.5c-7.2 3.4-15.4 1.1-18.2-4.9l-14.5-31.2c-2.8-6 0.7-13.7 7.9-17z"/>
		<path id="&lt;Path&gt;" class="s0" d="m1290.9 422.6l-632-288.6c-7.3-3.3-10.9-11.1-8.1-17.2l14.4-31.6c2.8-6.1 11.1-8.5 18.3-5.1l632 288.6c7.2 3.3 10.9 11.1 8.1 17.2l-14.4 31.6c-2.9 6.1-11.1 8.4-18.3 5.1z"/>
		<path id="&lt;Path&gt;" class="s0" d="m766.3 86.9l-0.3-64.3h59.7l-0.3 91.1z"/>
		<path id="&lt;Path&gt;" class="s1" d="m65.5 607.3l1234.3 0.3c21.9 0 25.3 12.7 25.3 20.7v7c0 8-2.7 21.8-24.5 21.8h-1235.1c-21.8 0-29.9-14.5-29.9-22.5v-5c0-8 8.1-22.3 29.9-22.3z"/>
		<path id="&lt;Path&gt;" class="s0" d="m410.4 251.8h17.7v14h-17.7z"/>
	</g>
</svg>